<?xml version="1.0" encoding="UTF-8" standalone="no"?>
<svg width="36px" height="24px" viewBox="0 0 36 24" version="1.1" xmlns="http://www.w3.org/2000/svg" xmlns:xlink="http://www.w3.org/1999/xlink">
    <!-- Generator: Sketch 3.8.3 (29802) - http://www.bohemiancoding.com/sketch -->
    <title></title>
    <desc>Created with Sketch.</desc>
    <defs></defs>
    <g id="Page-1" stroke="none" stroke-width="1" fill="none" fill-rule="evenodd">
        <g id="Desktop" transform="translate(-399.000000, -478.000000)" fill="#3B3B3B">
            <path d="M400.859375,486.656237 L401.546875,484.968737 L402.25,486.656237 L400.859375,486.656237 Z M410.5625,494.874987 L408.078125,494.874987 L408.078125,494.031237 L410.296875,494.031237 L410.296875,493.171862 L408.078125,493.171862 L408.078125,492.406237 L410.625,492.406237 L411.71875,493.640612 L410.5625,494.874987 Z M413.03125,493.656237 L414.578125,491.984362 L414.578125,495.374987 L413.03125,493.656237 Z M417.53125,492.921862 C417.53125,493.312487 417.25,493.484362 416.890625,493.484362 L415.59375,493.484362 L415.59375,492.406237 L416.90625,492.406237 C417.25,492.406237 417.53125,492.546862 417.53125,492.921862 L417.53125,492.921862 Z M422.046875,492.859362 C422.046875,493.281237 421.71875,493.359362 421.375,493.359362 L420.109375,493.359362 L420.109375,492.406237 L421.390625,492.406237 C421.703125,492.406237 422.046875,492.468737 422.046875,492.859362 L422.046875,492.859362 Z M417.703125,485.578112 C417.703125,485.984362 417.375,486.062487 417.03125,486.062487 L415.765625,486.062487 L415.765625,485.124987 L417.046875,485.124987 C417.359375,485.124987 417.703125,485.187487 417.703125,485.578112 L417.703125,485.578112 Z M424.875,486.656237 L425.578125,484.968737 L426.265625,486.656237 L424.875,486.656237 Z M409.921875,484.234362 L408.234375,484.234362 L407.03125,487.109362 L405.703125,484.234362 L404.046875,484.234362 L404.046875,488.249987 L402.328125,484.234362 L400.828125,484.234362 L399.015625,488.468737 L400.109375,488.468737 L400.5,487.531237 L402.609375,487.531237 L403,488.468737 L405.0625,488.468737 L405.0625,485.156237 L406.53125,488.468737 L407.421875,488.468737 L408.890625,485.156237 L408.890625,488.468737 L409.921875,488.468737 L409.921875,484.234362 Z M418.609375,492.921862 C418.609375,491.859362 417.859375,491.531237 416.90625,491.531237 L413.671875,491.531237 L412.390625,492.921862 L411.140625,491.531237 L407.078125,491.531237 L407.078125,495.765612 L411.078125,495.765612 L412.375,494.359362 L413.625,495.765612 L415.59375,495.765612 L415.59375,494.343737 C416.75,494.343737 418.609375,494.624987 418.609375,492.921862 L418.609375,492.921862 Z M414.0625,487.593737 L411.6875,487.593737 L411.6875,486.749987 L414,486.749987 L414,485.890612 L411.6875,485.890612 L411.6875,485.124987 L414.0625,485.124987 L414.0625,484.234362 L410.671875,484.234362 L410.671875,488.468737 L414.0625,488.468737 L414.0625,487.593737 Z M435,496.328112 C434.546875,496.546862 434.015625,496.593737 433.515625,496.593737 L430.890625,496.593737 L430.890625,496.218737 C430.53125,496.499987 429.96875,496.593737 429.515625,496.593737 L421.25,496.593737 L421.25,495.234362 C421.25,495.062487 421.21875,495.046862 421.0625,495.046862 L420.9375,495.046862 L420.9375,496.593737 L418.21875,496.593737 L418.21875,494.999987 C417.765625,495.187487 417.28125,495.203112 416.8125,495.203112 L416.484375,495.203112 L416.484375,496.593737 L413.1875,496.593737 L412.375,495.671862 L411.515625,496.593737 L406.15625,496.593737 L406.15625,490.687487 L411.609375,490.687487 L412.390625,491.593737 L413.234375,490.687487 L416.890625,490.687487 C417.3125,490.687487 417.984375,490.718737 418.3125,491.031237 L418.3125,490.687487 L421.578125,490.687487 C422.015625,490.687487 422.5625,490.765612 422.9375,491.031237 L422.9375,490.687487 L427.875,490.687487 L427.875,491.031237 C428.171875,490.749987 428.703125,490.687487 429.09375,490.687487 L431.859375,490.687487 L431.859375,491.031237 C432.21875,490.765612 432.6875,490.687487 433.125,490.687487 L435,490.687487 L435,480.093737 C435,478.953112 434.078125,477.999987 432.9375,477.999987 L401.0625,477.999987 C399.921875,477.999987 399,478.953112 399,480.093737 L399,486.203112 L400.21875,483.406237 L402.859375,483.406237 L403.203125,484.093737 L403.203125,483.406237 L406.296875,483.406237 L406.96875,484.921862 L407.640625,483.406237 L417.453125,483.406237 C417.859375,483.406237 418.28125,483.468737 418.59375,483.749987 L418.59375,483.406237 L421.28125,483.406237 L421.28125,483.749987 C421.796875,483.468737 422.40625,483.406237 422.984375,483.406237 L426.875,483.406237 L427.234375,484.093737 L427.234375,483.406237 L430.125,483.406237 L430.515625,484.093737 L430.515625,483.406237 L433.328125,483.406237 L433.328125,489.312487 L430.484375,489.312487 L429.953125,488.406237 L429.953125,489.312487 L426.40625,489.312487 L426.015625,488.359362 L425.140625,488.359362 L424.75,489.312487 C423.6875,489.312487 422.296875,489.484362 421.28125,488.953112 L421.28125,489.312487 L416.921875,489.312487 L416.921875,487.968737 C416.921875,487.859362 416.90625,487.749987 416.765625,487.749987 L416.609375,487.765612 L416.609375,489.312487 L408.15625,489.312487 L408.15625,488.578112 L407.84375,489.312487 L406.078125,489.312487 L405.78125,488.593737 L405.78125,489.312487 L402.375,489.312487 L401.984375,488.359362 L401.125,488.359362 L400.734375,489.312487 L399,489.312487 L399,499.906237 C399,501.046862 399.921875,501.999987 401.0625,501.999987 L432.9375,501.999987 C434.078125,501.999987 435,501.046862 435,499.906237 L435,496.328112 Z M423.15625,492.671862 C423.15625,491.671862 422.296875,491.531237 421.5,491.531237 L419.09375,491.531237 L419.09375,495.765612 L420.109375,495.765612 L420.109375,494.218737 L421.1875,494.218737 C421.859375,494.218737 422.09375,494.343737 422.09375,495.062487 L422.09375,495.765612 L423.109375,495.765612 L423.109375,494.921862 C423.109375,494.374987 423,493.999987 422.4375,493.796862 C422.90625,493.609362 423.15625,493.140612 423.15625,492.671862 L423.15625,492.671862 Z M418.828125,485.374987 C418.828125,484.374987 417.96875,484.249987 417.15625,484.249987 L414.765625,484.234362 L414.765625,488.468737 L415.765625,488.468737 L415.765625,486.937487 L416.859375,486.937487 C417.984375,486.937487 417.75,487.562487 417.765625,488.468737 L418.78125,488.468737 L418.78125,487.640612 C418.78125,487.078112 418.6875,486.718737 418.109375,486.515612 C418.5625,486.328112 418.828125,485.859362 418.828125,485.374987 L418.828125,485.374987 Z M427.09375,494.890612 L424.734375,494.874987 L424.734375,494.031237 L427.046875,494.031237 L427.046875,493.171862 L424.734375,493.171862 L424.734375,492.406237 L427.09375,492.406237 L427.09375,491.531237 L423.71875,491.531237 L423.71875,495.765612 L427.09375,495.765612 L427.09375,494.890612 Z M420.4375,484.234362 L419.40625,484.234362 L419.40625,488.468737 L420.4375,488.468737 L420.4375,484.234362 Z M431.265625,494.421862 C431.265625,492.390612 428.640625,493.734362 428.640625,492.812487 C428.640625,492.468737 428.9375,492.421862 429.203125,492.421862 L431.0625,492.421862 L431.0625,491.531237 L429.03125,491.531237 C428.25,491.531237 427.59375,491.937487 427.59375,492.796862 C427.59375,494.812487 430.203125,493.562487 430.203125,494.468737 C430.203125,494.796862 429.921875,494.859362 429.671875,494.859362 L427.703125,494.859362 L427.703125,495.765612 L429.671875,495.765612 C430.578125,495.765612 431.265625,495.421862 431.265625,494.421862 L431.265625,494.421862 Z M435,493.640612 C434.359375,492.796862 432.59375,493.562487 432.59375,492.812487 C432.59375,492.468737 432.875,492.421862 433.15625,492.421862 L435,492.421862 L435,491.531237 L432.984375,491.531237 C432.203125,491.531237 431.53125,491.937487 431.53125,492.796862 C431.53125,494.812487 434.140625,493.578112 434.140625,494.468737 C434.140625,494.781237 433.875,494.859362 433.625,494.859362 L431.671875,494.859362 L431.671875,495.765612 L433.625,495.765612 C434.125,495.765612 434.703125,495.656237 435,495.218737 L435,493.640612 Z M432.421875,484.249987 L431.390625,484.249987 L431.390625,487.187487 L429.609375,484.249987 L428.0625,484.249987 L428.0625,488.249987 L426.359375,484.249987 L424.84375,484.249987 L423.40625,487.578112 L422.953125,487.578112 C422.140625,487.578112 421.96875,487.078112 421.96875,486.359362 C421.96875,484.906237 422.9375,485.140612 424,485.156237 L424,484.234362 L423.015625,484.234362 C421.578125,484.234362 420.9375,484.968737 420.9375,486.390612 C420.9375,487.749987 421.5625,488.468737 422.953125,488.468737 L424.125,488.468737 L424.515625,487.531237 L426.609375,487.531237 L427.015625,488.468737 L429.078125,488.468737 L429.078125,485.296862 L430.984375,488.468737 L432.421875,488.468737 L432.421875,484.249987 Z" id=""></path>
        </g>
    </g>
</svg>