<?xml version="1.0" encoding="UTF-8" standalone="no"?>
<svg width="36px" height="24px" viewBox="0 0 36 24" version="1.1" xmlns="http://www.w3.org/2000/svg" xmlns:xlink="http://www.w3.org/1999/xlink">
    <!-- Generator: Sketch 3.8.3 (29802) - http://www.bohemiancoding.com/sketch -->
    <title></title>
    <desc>Created with Sketch.</desc>
    <defs></defs>
    <g id="Page-1" stroke="none" stroke-width="1" fill="none" fill-rule="evenodd">
        <g id="Desktop" transform="translate(-238.000000, -522.000000)" fill="#BABABA">
            <g id="Group" transform="translate(178.000000, 238.000000)">
                <g id="Number" transform="translate(60.000000, 255.000000)">
                    <path d="M0,50.5 C0,51.875 1.125,53 2.5,53 L33.5,53 C34.875,53 36,51.875 36,50.5 L36,41 L0,41 L0,50.5 Z M10,47 L16,47 L16,49 L10,49 L10,47 Z M4,47 L8,47 L8,49 L4,49 L4,47 Z M33.5,29 L2.5,29 C1.125,29 0,30.125 0,31.5 L0,35 L36,35 L36,31.5 C36,30.125 34.875,29 33.5,29 L33.5,29 Z" id=""></path>
                </g>
            </g>
        </g>
    </g>
</svg>