<?xml version="1.0" encoding="UTF-8" standalone="no"?>
<svg width="36px" height="24px" viewBox="0 0 36 24" version="1.1" xmlns="http://www.w3.org/2000/svg" xmlns:xlink="http://www.w3.org/1999/xlink">
    <!-- Generator: Sketch 3.8.3 (29802) - http://www.bohemiancoding.com/sketch -->
    <title></title>
    <desc>Created with Sketch.</desc>
    <defs></defs>
    <g id="Page-1" stroke="none" stroke-width="1" fill="none" fill-rule="evenodd">
        <g id="Desktop" transform="translate(-295.000000, -467.000000)" fill="#3B3B3B">
            <path d="M305.484375,479.578112 C305.46875,480.078112 305.21875,480.421862 304.859375,480.421862 C304.65625,480.421862 304.546875,480.281237 304.546875,480.078112 C304.546875,479.749987 304.796875,479.578112 305.28125,479.578112 L305.484375,479.578112 L305.484375,479.578112 Z M311.65625,479.015612 C311.734375,478.640612 311.9375,478.421862 312.21875,478.421862 C312.71875,478.421862 312.625,478.953112 312.625,479.015612 L311.65625,479.015612 Z M320.09375,479.578112 C320.078125,480.078112 319.828125,480.421862 319.46875,480.421862 C319.28125,480.421862 319.15625,480.281237 319.15625,480.078112 C319.15625,479.749987 319.40625,479.578112 319.90625,479.578112 L320.09375,479.578112 L320.09375,479.578112 Z M325.078125,479.171862 C325.078125,479.843737 324.78125,480.296862 324.375,480.296862 C324.078125,480.296862 323.9375,480.078112 323.9375,479.640612 C323.9375,478.984362 324.21875,478.531237 324.609375,478.531237 C324.90625,478.531237 325.078125,478.749987 325.078125,479.171862 L325.078125,479.171862 Z M302.5,476.968737 L301.640625,479.515612 L301.609375,476.968737 L300.34375,476.968737 L299.65625,481.062487 L300.484375,481.062487 L301.015625,477.937487 L301.078125,481.062487 L301.6875,481.062487 L302.796875,477.921862 L302.296875,481.062487 L303.171875,481.062487 L303.859375,476.968737 L302.5,476.968737 Z M306.453125,478.640612 C306.453125,477.999987 306.0625,477.671862 305.296875,477.671862 C304.984375,477.671862 304.6875,477.718737 304.25,477.843737 C304.140625,478.531237 304.140625,478.593737 304.140625,478.593737 C304.28125,478.546862 304.625,478.437487 305.0625,478.437487 C305.46875,478.437487 305.625,478.515612 305.625,478.749987 C305.625,478.796862 305.609375,478.843737 305.59375,478.953112 C305.453125,478.937487 305.328125,478.937487 305.234375,478.937487 C304.265625,478.937487 303.6875,479.406237 303.6875,480.218737 C303.6875,480.749987 304.015625,481.124987 304.5,481.124987 C304.890625,481.124987 305.1875,480.999987 305.40625,480.718737 L305.390625,481.062487 L306.125,481.062487 C306.140625,480.812487 306.3125,479.781237 306.390625,479.296862 C306.421875,479.015612 306.453125,478.812487 306.453125,478.640612 L306.453125,478.640612 Z M308.890625,477.734362 C308.65625,477.687487 308.3125,477.671862 308.109375,477.671862 C307.125,477.671862 306.796875,478.171862 306.796875,478.796862 C306.796875,479.218737 307,479.499987 307.46875,479.718737 C307.8125,479.890612 307.875,479.937487 307.875,480.093737 C307.875,480.296862 307.71875,480.390612 307.375,480.390612 C307.109375,480.390612 306.859375,480.343737 306.578125,480.265612 C306.46875,480.999987 306.46875,481.031237 306.46875,481.031237 C306.65625,481.078112 306.84375,481.124987 307.375,481.124987 C308.296875,481.140612 308.734375,480.781237 308.734375,480.015612 C308.734375,479.562487 308.546875,479.281237 308.109375,479.078112 C307.734375,478.921862 307.703125,478.874987 307.703125,478.718737 C307.703125,478.546862 307.84375,478.453112 308.125,478.453112 C308.296875,478.453112 308.53125,478.468737 308.765625,478.499987 L308.890625,477.734362 Z M310.265625,477.734362 L310.359375,477.234362 L309.5,477.234362 C309.15625,479.203112 309.109375,479.515612 309.109375,479.515612 C309.046875,479.859362 308.984375,480.249987 308.984375,480.390612 C309,480.874987 309.234375,481.124987 309.6875,481.124987 C309.890625,481.124987 310.078125,481.093737 310.3125,481.015612 L310.4375,480.281237 C310.375,480.296862 310.296875,480.312487 310.1875,480.312487 C309.984375,480.312487 309.890625,480.234362 309.890625,480.062487 C309.890625,479.968737 310.046875,479.171862 310.140625,478.546862 L310.59375,478.546862 L310.703125,477.734362 L310.265625,477.734362 Z M313.4375,478.874987 C313.4375,478.140612 312.96875,477.671862 312.25,477.671862 C311.375,477.671862 310.734375,478.499987 310.734375,479.640612 C310.734375,480.609362 311.234375,481.124987 312.21875,481.124987 C312.515625,481.124987 312.8125,481.078112 313.109375,480.999987 L313.25,480.156237 C312.9375,480.312487 312.65625,480.374987 312.34375,480.374987 C311.84375,480.374987 311.53125,480.171862 311.59375,479.687487 L313.328125,479.687487 C313.40625,479.359362 313.4375,479.109362 313.4375,478.874987 L313.4375,478.874987 Z M315.609375,477.718737 C315.234375,477.640612 315.03125,477.843737 314.765625,478.249987 C314.78125,478.078112 314.828125,477.906237 314.8125,477.734362 L314.015625,477.734362 C313.90625,478.765612 313.734375,479.812487 313.5625,480.843737 L313.515625,481.062487 L314.390625,481.062487 C314.703125,479.031237 314.78125,478.640612 315.265625,478.687487 C315.359375,478.265612 315.5,477.906237 315.609375,477.718737 L315.609375,477.718737 Z M318.53125,477.078112 C318.40625,477.031237 317.953125,476.874987 317.578125,476.874987 C316.40625,476.874987 315.59375,477.890612 315.59375,479.359362 C315.59375,480.453112 316.1875,481.124987 317.125,481.124987 C317.375,481.124987 317.578125,481.093737 317.90625,480.999987 L318.0625,480.078112 C317.765625,480.218737 317.53125,480.281237 317.3125,480.281237 C316.796875,480.281237 316.5,479.906237 316.5,479.281237 C316.5,478.390612 316.953125,477.749987 317.609375,477.749987 C317.859375,477.749987 318.078125,477.812487 318.390625,477.968737 L318.53125,477.078112 Z M321.0625,478.640612 C321.0625,477.999987 320.671875,477.671862 319.921875,477.671862 C319.59375,477.671862 319.3125,477.718737 318.875,477.843737 C318.75,478.531237 318.75,478.593737 318.75,478.593737 C318.890625,478.546862 319.25,478.437487 319.671875,478.437487 C320.078125,478.437487 320.234375,478.515612 320.234375,478.749987 C320.234375,478.796862 320.234375,478.843737 320.203125,478.953112 C320.078125,478.937487 319.953125,478.937487 319.84375,478.937487 C318.875,478.937487 318.3125,479.406237 318.3125,480.218737 C318.3125,480.749987 318.625,481.124987 319.109375,481.124987 C319.515625,481.124987 319.8125,480.999987 320.03125,480.718737 L320.015625,481.062487 L320.734375,481.062487 C320.765625,480.812487 320.921875,479.781237 321,479.296862 C321.046875,479.015612 321.0625,478.812487 321.0625,478.640612 L321.0625,478.640612 Z M323.265625,477.718737 C322.90625,477.640612 322.703125,477.843737 322.421875,478.249987 C322.453125,478.078112 322.484375,477.906237 322.484375,477.734362 L321.671875,477.734362 C321.5625,478.765612 321.40625,479.812487 321.21875,480.843737 L321.171875,481.062487 L322.046875,481.062487 C322.375,479.031237 322.4375,478.640612 322.9375,478.687487 C323.015625,478.265612 323.15625,477.906237 323.265625,477.718737 L323.265625,477.718737 Z M325.46875,476.968737 L325.28125,478.156237 C325.046875,477.843737 324.78125,477.703112 324.453125,477.703112 C323.671875,477.703112 323.015625,478.640612 323.015625,479.749987 C323.015625,480.578112 323.4375,481.124987 324.078125,481.124987 C324.40625,481.124987 324.640625,481.015612 324.890625,480.765612 L324.84375,481.062487 L325.671875,481.062487 L326.34375,476.968737 L325.46875,476.968737 Z M327.203125,478.999987 C327.203125,483.687487 323.40625,487.499987 318.703125,487.499987 C316.78125,487.499987 315.015625,486.859362 313.578125,485.781237 C314.78125,484.671862 315.6875,483.249987 316.15625,481.656237 L315.375,481.656237 C314.90625,483.062487 314.078125,484.328112 313,485.296862 C311.921875,484.328112 311.09375,483.062487 310.625,481.656237 L309.84375,481.656237 C310.3125,483.249987 311.21875,484.671862 312.421875,485.781237 C310.984375,486.859362 309.21875,487.499987 307.296875,487.499987 C302.59375,487.499987 298.796875,483.687487 298.796875,478.999987 C298.796875,474.312487 302.59375,470.499987 307.296875,470.499987 C309.21875,470.499987 310.984375,471.140612 312.421875,472.218737 C311.140625,473.390612 310.203125,474.921862 309.75,476.656237 L310.53125,476.656237 C310.984375,475.109362 311.84375,473.749987 313,472.703112 C314.15625,473.749987 315.015625,475.109362 315.46875,476.656237 L316.25,476.656237 C315.796875,474.921862 314.859375,473.390612 313.578125,472.218737 C315.015625,471.140612 316.78125,470.499987 318.703125,470.499987 C323.40625,470.499987 327.203125,474.312487 327.203125,478.999987 L327.203125,478.999987 Z M331,468.999987 C331,467.906237 330.09375,466.999987 329,466.999987 L297,466.999987 C295.90625,466.999987 295,467.906237 295,468.999987 L295,488.999987 C295,490.093737 295.90625,490.999987 297,490.999987 L329,490.999987 C330.09375,490.999987 331,490.093737 331,488.999987 L331,468.999987 Z" id=""></path>
        </g>
    </g>
</svg>