<?xml version="1.0" encoding="UTF-8" standalone="no"?>
<svg width="36px" height="24px" viewBox="0 0 36 24" version="1.1" xmlns="http://www.w3.org/2000/svg" xmlns:xlink="http://www.w3.org/1999/xlink">
    <!-- Generator: Sketch 3.8.3 (29802) - http://www.bohemiancoding.com/sketch -->
    <title></title>
    <desc>Created with Sketch.</desc>
    <defs></defs>
    <g id="Page-1" stroke="none" stroke-width="1" fill="none" fill-rule="evenodd">
        <g id="Desktop" transform="translate(-238.000000, -545.000000)" fill="#3B3B3B">
            <g id="Group" transform="translate(178.000000, 261.000000)">
                <g id="Number" transform="translate(60.000000, 255.000000)">
                    <path d="M30.859375,42.46875 C30.859375,42.46875 30.75,41.96875 30.265625,39.578125 L30.078125,38.71875 C29.953125,39.09375 29.71875,39.6875 29.734375,39.671875 C28.921875,41.890625 28.703125,42.46875 28.703125,42.46875 L30.859375,42.46875 L30.859375,42.46875 Z M8.296875,41.453125 C7.234375,38.5 4.875,36.9375 2,36.203125 L2.03125,36 L6.21875,36 C6.78125,36 7.265625,36.203125 7.390625,36.84375 L8.296875,41.453125 Z M11.09375,36 L13.84375,36 L9.765625,46.015625 L7.03125,46.015625 L4.921875,38.046875 C6.421875,38.65625 7.75,40 8.296875,41.453125 L8.5625,42.84375 L11.09375,36 Z M13.265625,46.03125 L14.890625,36 L17.484375,36 L15.859375,46.03125 L13.265625,46.03125 Z M25.265625,36.25 L24.90625,38.421875 L24.671875,38.296875 C24.203125,38.078125 23.578125,37.90625 22.734375,37.921875 C21.71875,37.921875 21.25,38.359375 21.25,38.78125 C21.25,39.25 21.796875,39.578125 22.703125,40.03125 C24.1875,40.75 24.890625,41.609375 24.890625,42.75 C24.859375,44.828125 23.09375,46.1875 20.375,46.171875 C19.203125,46.171875 18.09375,45.921875 17.484375,45.640625 L17.84375,43.390625 L18.1875,43.5625 C19.015625,43.953125 19.578125,44.078125 20.625,44.078125 C21.359375,44.078125 22.171875,43.78125 22.171875,43.109375 C22.171875,42.671875 21.84375,42.34375 20.828125,41.859375 C19.84375,41.375 18.546875,40.578125 18.5625,39.140625 C18.578125,37.1875 20.375,35.828125 22.9375,35.828125 C23.9375,35.828125 24.75,36.046875 25.265625,36.25 L25.265625,36.25 Z M31.90625,36 L34,46.03125 L31.59375,46.03125 C31.359375,44.875 31.28125,44.53125 31.28125,44.53125 L27.96875,44.53125 C27.96875,44.53125 27.859375,44.796875 27.421875,46.03125 L24.703125,46.03125 L28.546875,36.84375 C28.8125,36.1875 29.28125,36 29.90625,36 L31.90625,36 Z M36,31 C36,29.90625 35.09375,29 34,29 L2,29 C0.90625,29 0,29.90625 0,31 L0,51 C0,52.09375 0.90625,53 2,53 L34,53 C35.09375,53 36,52.09375 36,51 L36,31 Z" id=""></path>
                </g>
            </g>
        </g>
    </g>
</svg>